<?xml version="1.0" encoding="utf-8"?>
<svg version="1.1" xmlns:xlink="http://www.w3.org/1999/xlink" width="16px" height="15px" xmlns="http://www.w3.org/2000/svg">
  <g transform="matrix(1 0 0 1 -17 -80 )">
    <path d="M 13.07 2  L 2.375 2  C 1.96078643762691 2  1.625 2.33578643762691  1.625 2.75  L 1.625 12.53225  C 1.625 12.9464635623731  1.96078643762691 13.28225  2.375 13  L 13.07 13  C 13.4842135623731 13.28225  13.82 12.9464635623731  13.82 12.53225  L 13.82 2.75  C 13.82 2.33578643762691  13.4842135623731 2  13.07 2  Z M 0.125 2.75  C 0.125 1.50735931288072  1.13235931288071 0.5  2.375 0.5  L 13.07 0.5  C 14.3126406871193 0.5  15.32 1.50735931288072  15.32 2.75  L 15.32 12.53225  C 15.32 13.7748906871193  14.3126406871193 14.78225  13.07 14.78225  L 2.375 14.78225  C 1.13235931288072 14.78225  0.125000000000001 13.7748906871193  0.125 12.53225  L 0.125 2.75  Z " fill-rule="nonzero" fill="#999999" stroke="none" transform="matrix(1 0 0 1 17 80 )" />
  </g>
</svg>