<?xml version="1.0" encoding="utf-8"?>
<svg version="1.1" xmlns:xlink="http://www.w3.org/1999/xlink" width="9px" height="11px" xmlns="http://www.w3.org/2000/svg">
  <g transform="matrix(1 0 0 1 -30 -82 )">
    <path d="M 2.42575 5.3685  L 7.2745 9.06075  L 7.213 1.96875  L 2.42575 5.3685  Z M 1.55725 4.14525  L 6.3445 0.7455  C 6.59826208333363 0.56527622714691  6.90180292620693 0.468454591602299  7.21305170650852 0.468454591602299  C 8.03661912629402 0.468454591602299  8.70616186941974 1.1324609694117  8.713 1.956  L 8.7745 9.048  C 8.77453345785919 9.05208999022765  8.77455018699868 9.0561801001965  8.77455018699868 9.06027022727161  C 8.77455018699868 9.8886973520178  8.10297731174487 10.5602702272716  7.27455018699868 10.5602702272716  C 6.94643509298885 10.5602702272716  6.62737050440074 10.4526846674975  6.36625 10.254  L 1.51675 6.56175  C 1.14421447709568 6.27804988797888  0.92553818838978 5.83665281388172  0.92553818838978 5.36839170148139  C 0.92553818838978 4.88241858286026  1.16097400854369 4.42655981251579  1.55725 4.14525  Z " fill-rule="nonzero" fill="#999999" stroke="none" transform="matrix(1 0 0 1 30 82 )" />
  </g>
</svg>